<svg width="200" height="200" viewBox="0 0 200 200" fill="none" xmlns="http://www.w3.org/2000/svg">
<g clip-path="url(#clip0_700_32961)">
<path d="M35.9502 88.6719C35.9502 91.9078 38.5736 94.5312 41.8096 94.5312H88.6846C91.9205 94.5312 94.5439 91.9078 94.5439 88.6719V68.3703L97.1533 70.1098C99.8338 71.8973 103.476 71.1891 105.279 68.4848C107.074 65.7922 106.346 62.1543 103.653 60.3594L94.5439 54.2863V33.9844C94.5439 30.7484 91.9205 28.125 88.6846 28.125C85.4486 28.125 82.8252 30.7484 82.8252 33.9844V46.4734L68.4971 36.9215C66.5291 35.6094 63.9646 35.6094 61.9967 36.9215C59.0295 38.8996 30.9951 57.5891 26.8404 60.359C24.1479 62.1539 23.4201 65.7918 25.215 68.4844C27.01 71.177 30.6482 71.9043 33.3404 70.1094L35.9498 68.3699L35.9502 88.6719ZM65.2471 48.8391L82.8252 60.5578V82.8125H71.1064V76.9531C71.1064 73.7172 68.483 71.0938 65.2471 71.0938C62.0111 71.0938 59.3877 73.7172 59.3877 76.9531V82.8125H47.6689V60.5578L65.2471 48.8391Z" fill="#F4D67B"/>
<path d="M88.6836 106.25H41.8086C38.5727 106.25 35.9492 108.873 35.9492 112.109C35.9492 115.345 38.5727 117.969 41.8086 117.969H88.6836C91.9195 117.969 94.543 115.345 94.543 112.109C94.543 108.873 91.9195 106.25 88.6836 106.25Z" fill="#F4D67B"/>
<path d="M41.8086 129.688C38.5727 129.688 35.9492 132.311 35.9492 135.547C35.9492 138.783 38.5727 141.406 41.8086 141.406H65.2461C68.482 141.406 71.1055 138.783 71.1055 135.547C71.1055 132.311 68.482 129.688 65.2461 129.688H41.8086Z" fill="#F4D67B"/>
<path d="M65.2461 153.125H41.8086C38.5727 153.125 35.9492 155.748 35.9492 158.984C35.9492 162.22 38.5727 164.844 41.8086 164.844H65.2461C68.482 164.844 71.1055 162.22 71.1055 158.984C71.1055 155.748 68.482 153.125 65.2461 153.125Z" fill="#F4D67B"/>
<path d="M187.998 90.5605C178.511 81.0734 165.495 77.2148 153.137 78.984V41.0156C153.137 39.4125 152.469 37.9211 151.421 36.8723L116.264 1.71602C116.168 1.65156 114.671 0 112.121 0H5.87109C2.63516 0 0.0117188 2.62344 0.0117188 5.85938V194.141C0.0117188 197.377 2.63516 200 5.87109 200H147.277C150.513 200 153.137 197.377 153.137 194.141V160.026C165.728 161.871 178.746 157.818 187.998 148.566C203.99 132.573 203.99 106.553 187.998 90.5605ZM117.98 20.0051L133.131 35.1562H117.98V20.0051H117.98ZM11.7305 11.7188H106.262V41.0156C106.262 44.2516 108.885 46.875 112.121 46.875H141.418V82.5051C137.283 84.4617 133.409 87.1449 129.994 90.5605C118.805 101.748 115.211 118.445 120.467 133.233L80.275 173.425C79.1762 174.523 78.5586 176.014 78.5586 177.568V188.281H11.7305V11.7188ZM115.137 188.281L141.418 162V188.281H115.137ZM179.712 140.279C171.027 148.964 157.664 151.221 146.462 145.895C144.223 144.83 141.555 145.289 139.802 147.043L98.5641 188.281H90.2777V179.995L131.516 138.757C133.269 137.004 133.729 134.337 132.664 132.097C127.338 120.895 129.595 107.532 138.28 98.8469C149.703 87.4238 168.289 87.4238 179.712 98.8469C191.135 110.27 191.135 128.856 179.712 140.279Z" fill="#F4D67B"/>
<path d="M163.138 107.134C160.85 109.422 160.85 113.132 163.138 115.42C165.426 117.708 169.136 117.708 171.424 115.42C173.713 113.132 173.713 109.422 171.424 107.134C169.137 104.846 165.426 104.846 163.138 107.134Z" fill="#F4D67B"/>
</g>
<defs>
<clipPath id="clip0_700_32961">
<rect width="200" height="200" fill="white"/>
</clipPath>
</defs>
</svg>
