<svg width="50" height="50" viewBox="0 0 50 50" fill="none" xmlns="http://www.w3.org/2000/svg">
<g clip-path="url(#clip0_700_32986)">
<path d="M44.0664 21.5101C44.0631 21.5003 40.988 12.2752 41.1366 12.7207C40.9406 12.132 40.3797 11.719 39.7469 11.719H38.0307C37.6393 11.719 37.2715 11.5666 36.9949 11.29L35.7813 10.0763C34.9512 9.24623 33.8476 8.78918 32.6737 8.78918H32.4224V7.32428C32.4224 6.51526 31.7666 5.85938 30.9575 5.85938C30.1485 5.85938 29.4926 6.51526 29.4926 7.32428V8.78918H29.2413C28.0674 8.78918 26.9638 9.24633 26.1337 10.0763L24.9203 11.29C24.6436 11.5666 24.2756 11.719 23.8844 11.719H22.1682C21.5578 11.719 20.976 12.1052 20.7688 12.7495L17.8486 21.5101C17.6998 21.9568 17.7746 22.4479 18.05 22.8299C18.3253 23.2119 18.7676 23.4382 19.2384 23.4382H25.098C25.5688 23.4382 26.0111 23.2118 26.2864 22.8299C26.5617 22.4479 26.6367 21.9568 26.4878 21.5101L24.1967 14.6367C25.253 14.5631 26.2361 14.1176 26.9922 13.3616L28.2057 12.148C28.4823 11.8713 28.8503 11.719 29.2415 11.719H29.4928V26.368H28.0279C27.2189 26.368 26.563 27.0239 26.563 27.8329C26.563 28.6419 27.2189 29.2978 28.0279 29.2978H33.8875C34.6966 29.2978 35.3524 28.6419 35.3524 27.8329C35.3524 27.0239 34.6966 26.368 33.8875 26.368H32.4226V11.719H32.6739C33.0652 11.719 33.4331 11.8713 33.7097 12.148L34.9233 13.3616C35.6793 14.1176 36.6625 14.563 37.7187 14.6367L35.4276 21.5101C35.2788 21.9568 35.3536 22.4479 35.629 22.8299C35.9043 23.2119 36.3466 23.4382 36.8174 23.4382H42.6771C43.1479 23.4382 43.5902 23.2118 43.8655 22.8299C44.1404 22.4479 44.2153 21.9568 44.0664 21.5101ZM21.2706 20.5084L22.1679 17.8163L23.0653 20.5084H21.2706ZM38.8495 20.5084L39.7468 17.8163L40.6442 20.5084H38.8495Z" fill="#F4D67B"/>
<path d="M30.9563 0C20.4556 0 11.9125 8.54303 11.9125 19.0438C11.9125 22.7053 12.9522 26.1281 14.7506 29.0345L5.42898 38.3562C5.42888 38.3563 5.42879 38.3564 5.42859 38.3565C5.4284 38.3566 5.4284 38.3567 5.4283 38.3568L1.28516 42.4998C-0.428387 44.2132 -0.428387 47.0013 1.28516 48.7149C2.99861 50.4282 5.78661 50.4283 7.50016 48.7149L20.9656 35.2496C23.8718 37.0478 27.2947 38.0875 30.9563 38.0875C41.457 38.0875 50 29.5445 50 19.0438C50 8.54303 41.457 0 30.9563 0ZM5.42849 46.6432C4.85728 47.2143 3.92804 47.2143 3.35683 46.6432C2.78561 46.072 2.78561 45.1427 3.35683 44.5715L16.5009 31.4274C17.1377 32.1696 17.8305 32.8624 18.5727 33.4991L5.42849 46.6432ZM30.9563 35.1577C22.0711 35.1577 14.8424 27.929 14.8424 19.0438C14.8424 10.1585 22.0711 2.92981 30.9563 2.92981C39.8415 2.92981 47.0702 10.1585 47.0702 19.0438C47.0702 27.929 39.8415 35.1577 30.9563 35.1577Z" fill="#F4D67B"/>
</g>
<defs>
<clipPath id="clip0_700_32986">
<rect width="50" height="50" fill="white"/>
</clipPath>
</defs>
</svg>
