<svg width="50" height="50" viewBox="0 0 50 50" fill="none" xmlns="http://www.w3.org/2000/svg">
<g clip-path="url(#clip0_700_32969)">
<path d="M13.2812 17.582H19.1406C19.6115 17.582 20.0536 17.3557 20.3288 16.9737C20.6041 16.5918 20.679 16.1007 20.5302 15.654L18.2392 8.78086C19.2953 8.70723 20.2785 8.26191 21.0344 7.50586L22.248 6.29229C22.5246 6.01563 22.8925 5.86328 23.2837 5.86328H23.5351V20.5117H22.0703C21.2613 20.5117 20.6054 21.1676 20.6054 21.9766C20.6054 22.7855 21.2613 23.4414 22.0703 23.4414H27.9296C28.7386 23.4414 29.3945 22.7855 29.3945 21.9766C29.3945 21.1676 28.7386 20.5117 27.9296 20.5117H26.4648V5.86328H26.7162C27.1074 5.86328 27.4752 6.01563 27.7519 6.29229L28.9655 7.50586C29.7214 8.26182 30.7045 8.70713 31.7607 8.78086L29.4697 15.654C29.3208 16.1007 29.3957 16.5918 29.671 16.9737C29.9463 17.3558 30.3885 17.582 30.8593 17.582H36.7187C37.1896 17.582 37.6317 17.3557 37.907 16.9737C38.1823 16.5918 38.2572 16.1007 38.1083 15.654C34.6955 5.41572 35.2445 7.07461 35.187 6.88975C35.1796 6.87998 34.8808 5.86328 33.789 5.86328H32.0728C31.6816 5.86328 31.3137 5.71094 31.0371 5.43428L29.8235 4.2207C28.9935 3.39063 27.89 2.93359 26.7162 2.93359H26.4648V1.46875C26.4648 0.659766 25.8089 0.00390625 24.9999 0.00390625C24.191 0.00390625 23.5351 0.659766 23.5351 1.46875V2.93359H23.2837C22.1099 2.93359 21.0064 3.39072 20.1764 4.2207L18.9628 5.43428C18.6862 5.71094 18.3183 5.86328 17.9271 5.86328H16.2109C15.5831 5.86328 15.0055 6.27314 14.8116 6.89375L11.8915 15.654C11.7427 16.1007 11.8176 16.5918 12.0929 16.9737C12.3682 17.3557 12.8103 17.582 13.2812 17.582ZM32.8917 14.6523L33.789 11.9604L34.6863 14.6523H32.8917ZM15.3136 14.6523L16.2109 11.9604L17.1081 14.6523H15.3136Z" fill="#F4D67B"/>
<path d="M48.5352 26.6641C48.286 26.6641 2.9793 26.6641 1.46484 26.6641C0.655859 26.6641 0 27.3199 0 28.1289V45.707C0 46.516 0.655859 47.1719 1.46484 47.1719H7.42188C9.33154 47.1719 10.9598 45.9471 11.5645 44.2422H14.9975C15.3887 44.2422 15.7565 44.3945 16.0332 44.6712L18.7852 47.4231C20.4452 49.0832 22.6523 49.9975 25 49.9975C27.3477 49.9975 29.5548 49.0832 31.2148 47.4231L32.7532 45.8848C33.2248 45.4132 33.5756 44.8531 33.791 44.2422H38.4355C39.0402 45.9471 40.6685 47.1719 42.5781 47.1719H48.5352C49.3441 47.1719 50 46.516 50 45.707V28.1289C50 27.3199 49.3441 26.6641 48.5352 26.6641ZM32.7532 39.6699L31.428 38.3447C33.5833 38.0648 35.2539 36.2186 35.2539 33.9882C35.2539 33.1792 34.598 32.5233 33.7891 32.5233C32.9801 32.5233 32.3242 33.1792 32.3242 33.9882C32.3242 34.7959 31.6671 35.453 30.8594 35.453H27.9297C27.1084 35.453 26.4648 36.126 26.4648 36.9179C26.4648 37.7256 25.8077 38.3827 25 38.3827H23.5352V31.0585C23.5352 30.2508 24.1923 29.5937 25 29.5937H38.1836V41.3124H33.791C33.5756 40.7016 33.2248 40.1415 32.7532 39.6699ZM7.42188 44.2422H2.92969V29.5938H8.88672V42.7773C8.88672 43.5851 8.22959 44.2422 7.42188 44.2422ZM30.6816 43.8132L29.1433 45.3516C28.0365 46.4583 26.5651 47.0678 25 47.0678C23.4349 47.0678 21.9635 46.4583 20.8567 45.3516L18.1048 42.5996C17.2748 41.7695 16.1713 41.3125 14.9975 41.3125H11.8164V29.5938H20.8574C20.6948 30.0522 20.6055 30.5451 20.6055 31.0586V39.8477C20.6055 40.6566 21.2613 41.3125 22.0703 41.3125H25C26.4299 41.3125 27.7024 40.626 28.5055 39.5653L30.6816 41.7415C30.9583 42.0182 31.1106 42.386 31.1106 42.7773C31.1106 43.1687 30.9583 43.5364 30.6816 43.8132ZM47.0703 44.2422H42.5781C41.7704 44.2422 41.1133 43.5851 41.1133 42.7773V29.5938H47.0703V44.2422Z" fill="#F4D67B"/>
</g>
<defs>
<clipPath id="clip0_700_32969">
<rect width="50" height="50" fill="white"/>
</clipPath>
</defs>
</svg>
