<svg width="50" height="50" viewBox="0 0 50 50" fill="none" xmlns="http://www.w3.org/2000/svg">
<path d="M23.5352 26.5625H11.8164C11.0074 26.5625 10.3516 27.2184 10.3516 28.0273C10.3516 28.8363 11.0074 29.4922 11.8164 29.4922H23.5352C24.3441 29.4922 25 28.8363 25 28.0273C25 27.2184 24.3441 26.5625 23.5352 26.5625Z" fill="#F4D67B"/>
<path d="M17.6758 32.4219H11.8164C11.0074 32.4219 10.3516 33.0777 10.3516 33.8867C10.3516 34.6957 11.0074 35.3516 11.8164 35.3516H17.6758C18.4848 35.3516 19.1406 34.6957 19.1406 33.8867C19.1406 33.0777 18.4848 32.4219 17.6758 32.4219Z" fill="#F4D67B"/>
<path d="M17.6758 38.2812H11.8164C11.0074 38.2812 10.3516 38.9371 10.3516 39.7461C10.3516 40.5551 11.0074 41.2109 11.8164 41.2109H17.6758C18.4848 41.2109 19.1406 40.5551 19.1406 39.7461C19.1406 38.9371 18.4848 38.2812 17.6758 38.2812Z" fill="#F4D67B"/>
<path d="M44.043 20.7031H39.6484V10.2539C39.6484 9.85664 39.4832 9.48174 39.2191 9.21787L30.4306 0.429297C30.1581 0.156641 29.7823 0 29.3945 0H3.02734C2.21836 0 1.5625 0.655859 1.5625 1.46484V48.5352C1.5625 49.3441 2.21836 50 3.02734 50H44.043C46.4661 50 48.4375 48.0286 48.4375 45.6055V25.0977C48.4375 22.6745 46.4661 20.7031 44.043 20.7031ZM45.5078 25.0977V29.4922H30.8594V25.0977C30.8594 24.2899 31.5165 23.6328 32.3242 23.6328H44.043C44.8507 23.6328 45.5078 24.2899 45.5078 25.0977ZM30.8594 5.00127L34.6472 8.78906H30.8594V5.00127ZM4.49219 2.92969H27.9297V10.2539C27.9297 11.0629 28.5855 11.7188 29.3945 11.7188H36.7188V20.7031H32.3242C29.9011 20.7031 27.9297 22.6745 27.9297 25.0977V45.6055C27.9297 46.1189 28.019 46.6118 28.1816 47.0703H4.49219V2.92969ZM44.043 47.0703H32.3242C31.5165 47.0703 30.8594 46.4132 30.8594 45.6055V32.4219H45.5078V45.6055C45.5078 46.4132 44.8507 47.0703 44.043 47.0703Z" fill="#F4D67B"/>
<path d="M12.4955 21.4863C13.0674 22.0583 13.995 22.0584 14.567 21.4863L22.8535 13.1999C23.4255 12.6278 23.4255 11.7003 22.8535 11.1283C22.2815 10.5562 21.354 10.5562 20.7819 11.1283L12.4955 19.4147C11.9234 19.9868 11.9234 20.9142 12.4955 21.4863Z" fill="#F4D67B"/>
<path d="M41.1133 38.2812C41.9223 38.2812 42.5781 37.6254 42.5781 36.8164C42.5781 36.0074 41.9223 35.3516 41.1133 35.3516C40.3043 35.3516 39.6484 36.0074 39.6484 36.8164C39.6484 37.6254 40.3043 38.2812 41.1133 38.2812Z" fill="#F4D67B"/>
<path d="M35.2539 38.2812C36.0629 38.2812 36.7188 37.6254 36.7188 36.8164C36.7188 36.0074 36.0629 35.3516 35.2539 35.3516C34.4449 35.3516 33.7891 36.0074 33.7891 36.8164C33.7891 37.6254 34.4449 38.2812 35.2539 38.2812Z" fill="#F4D67B"/>
<path d="M14.567 13.1998C15.1391 12.6277 15.1391 11.7003 14.567 11.1282C13.995 10.5562 13.0675 10.5562 12.4955 11.1282C11.9234 11.7003 11.9234 12.6277 12.4955 13.1998C13.0675 13.7718 13.995 13.7718 14.567 13.1998Z" fill="#F4D67B"/>
<path d="M20.7845 19.4173C20.2125 19.9894 20.2125 20.9168 20.7845 21.4889C21.3566 22.0609 22.284 22.0609 22.8561 21.4889C23.4282 20.9168 23.4282 19.9894 22.8561 19.4173C22.284 18.8453 21.3566 18.8453 20.7845 19.4173Z" fill="#F4D67B"/>
<path d="M41.1133 44.1406C41.9223 44.1406 42.5781 43.4848 42.5781 42.6758C42.5781 41.8668 41.9223 41.2109 41.1133 41.2109C40.3043 41.2109 39.6484 41.8668 39.6484 42.6758C39.6484 43.4848 40.3043 44.1406 41.1133 44.1406Z" fill="#F4D67B"/>
<path d="M35.2539 44.1406C36.0629 44.1406 36.7188 43.4848 36.7188 42.6758C36.7188 41.8668 36.0629 41.2109 35.2539 41.2109C34.4449 41.2109 33.7891 41.8668 33.7891 42.6758C33.7891 43.4848 34.4449 44.1406 35.2539 44.1406Z" fill="#F4D67B"/>
</svg>
